<svg xmlns="http://www.w3.org/2000/svg" width="557" height="267" viewBox="0 0 557 267">
  <path fill="#213259" fill-rule="evenodd" d="M245.235294,178.462725 L207,178.462725 L207,88 L244.411765,88 C264.764706,88 275.470588,95.6863753 275.470588,111.059126 C275.470588,121.701799 267.705882,127.969152 259.823529,129.861183 L259.823529,130.33419 C271.117647,132.226221 279.352941,140.1491 279.352941,152.092545 C279.352941,169.59383 265.705882,178.462725 245.235294,178.462725 Z M226.294118,125.367609 L242.058824,125.367609 C250.411765,125.367609 256.294118,121.938303 256.294118,113.305913 C256.294118,105.501285 251.117647,101.48072 242.529412,101.48072 L226.294118,101.48072 L226.294118,125.367609 Z M226.294118,164.627249 L243.823529,164.627249 C253.588235,164.627249 259.588235,161.079692 259.588235,150.791774 C259.588235,142.159383 253.588235,138.138817 243.470588,138.138817 L226.294118,138.138817 L226.294118,164.627249 Z M313.705882,167.347044 C320.176471,167.347044 326.176471,162.262211 326.176471,151.737789 L326.176471,149.727506 C316.294118,150.318766 311.352941,151.14653 308.411765,153.156812 C306.294118,154.575835 305.352941,156.940874 305.352941,159.542416 C305.352941,164.154242 308.529412,167.347044 313.705882,167.347044 Z M307.470588,133.881748 L289.588235,133.881748 C290.294118,121.228792 300.294118,113.660668 316.764706,113.660668 C337.117647,113.660668 344.176471,122.056555 344.176471,138.966581 L344.176471,160.843188 C344.176471,164.272494 345.235294,165.573265 349.235294,165.573265 L349.235294,178.580977 L343,178.580977 C333.941176,178.580977 329.588235,176.807198 327.588235,169.830334 L327.352941,169.830334 C323.352941,175.742931 317.235294,179.172237 308.294118,179.172237 C295.117647,179.172237 286.882353,172.195373 286.882353,160.37018 C286.882353,153.03856 290.176471,147.835476 296.411765,144.524422 C303.117647,140.976864 312.647059,140.385604 326.058824,139.794344 L326.058824,136.365039 C326.058824,129.388175 323.117647,125.722365 316.764706,125.722365 C310.647059,125.722365 307.705882,129.151671 307.470588,133.881748 Z M417.823529,137.784062 L399.470588,137.784062 C398.882353,131.043702 395.705882,126.077121 388.647059,126.077121 C378.882353,126.077121 375.941176,136.010283 375.941176,146.534704 C375.941176,156.349614 377.941176,167.11054 388.529412,167.11054 C396.764706,167.11054 399.705882,161.079692 399.941176,154.930591 L418.058824,154.930591 C417.588235,171.604113 405.117647,180 388.529412,180 C368.176471,180 356.764706,167.465296 356.764706,146.771208 C356.764706,126.195373 369,113.542416 388.647059,113.542416 C405.470588,113.542416 417.352941,121.820051 417.823529,137.784062 Z M448.647059,162.025707 L448.647059,178.462725 L430.294118,178.462725 L430.294118,88.3688946 L448.647059,88.3688946 L448.647059,141.33162 L470.176471,115.079692 L489.941176,115.079692 L468.882353,139.912596 L491,178.462725 L470.764706,178.462725 L456.411765,152.565553 L448.647059,162.025707 Z M143.485489,141.358081 C142.827742,149.045756 141.177936,162.831906 140.033318,170.464534 C139.613919,173.262541 138.525507,176.01818 137.362724,178.624973 C136.698123,180.113857 135.435579,181.465758 134.147304,182.523697 C131.32917,184.840065 127.815762,184.454828 126.005147,181.333367 C124.738258,179.148814 123.764645,176.475987 123.692491,173.9906 C123.552392,169.172835 124.607061,158.19548 125.105259,153.386065 C127.234484,132.812712 129.406808,112.242867 131.728552,91.6908206 C132.388174,85.8498514 134.102252,78.0928221 135.081154,72.2889208 C135.189437,71.6486562 135.403587,71.0162069 135.647998,70.4112986 C136.442844,68.4397069 137.789893,67.1224166 140.033318,67.0060052 C142.068377,66.9012073 144.112984,68.1732796 144.832389,70.4118567 C145.425444,72.2579008 145.641339,74.2459006 145.838148,76.1896727 C146.009014,77.8778219 145.919559,79.5927715 145.945448,81.2953524 C146.26608,100.689405 145.13817,122.034907 143.485489,141.358081 Z M92.6425566,137.695096 C88.7039419,135.512152 79.062886,129.168241 77.1530997,127.981574 C68.7624555,122.769829 68.3556674,114.713862 76.576147,109.316815 C80.3840345,106.817038 82.5539189,105.221977 86.865727,103.597122 C90.5560329,102.207711 94.4530193,101.36113 98.8699935,100.098888 C97.4655885,99.1236839 96.5680255,98.4057247 95.585015,97.8331014 C91.0073705,95.1661882 78.6334283,87.4976811 74.1061759,84.7501066 C72.4337436,83.7349355 70.8328826,82.4683334 69.5256101,81.0236949 C67.9787928,79.3138184 67.9649167,77.0589325 69.1093279,75.5445327 C70.413679,73.819396 72.1642556,73.5636049 74.0901089,74.2663038 C84.081614,77.9113273 101.437068,87.4016195 110.173883,93.532613 C110.71432,93.911213 111.210207,94.3581208 111.695139,94.8079353 C117.08709,99.8154826 116.465588,105.477768 109.841588,108.808866 C105.840896,110.821041 101.518133,112.207545 97.3209852,113.82586 C93.8870215,115.150597 90.423845,116.401938 86.2573706,117.951945 C88.0517663,119.060858 89.1392125,119.725043 90.2178948,120.402308 C95.5988911,123.779914 101.093087,126.996196 106.303919,130.61724 C108.524821,132.160706 110.48719,134.332751 111.974852,136.604351 C114.857424,141.003667 113.970086,146.093329 109.810914,149.332866 C107.651359,151.015855 105.086476,152.243217 102.579288,153.411717 C97.9008591,155.593935 93.0946245,157.506555 88.4161959,159.6895 C86.5465772,160.561515 84.8756055,161.855004 82.6013897,163.277116 C84.6521277,165.669344 86.3603457,167.622658 88.0262051,169.611579 C92.3768682,174.805027 96.6975946,180.2393 101.031301,185.510218 C110.173883,196.629983 101.031301,205.804085 90.3259034,195.530126 C84.9103713,190.332845 79.5158523,185.113968 74.1545109,179.861391 C72.0964697,177.845583 70.3115682,175.462801 68.7939636,173.008079 C63.9877291,165.238423 65.4184255,156.627273 72.8070709,151.239672 C76.3892895,148.627987 80.6302566,146.849076 84.7171261,145.008397 C87.7223921,143.653867 90.9664726,142.825452 94.091511,141.72962 C94.9313788,141.435315 95.728888,141.019654 96.9828471,140.467378 C95.2906962,139.378812 94.0126365,138.45375 92.6425566,137.695096 Z" transform="translate(0 1)"/>
</svg>
